Run_40002
nRows=4
nColumns=164

# SIMM Motion File Header:
name Run_40002
datacolumns 164
datarows 4
otherdata 1
range 2.78000000 2.81000000
endheader
time	pelvis_tilt	pelvis_list	pelvis_rotation	pelvis_tx	pelvis_ty	pelvis_tz	hip_flexion_r	hip_adduction_r	hip_rotation_r	knee_angle_r	ankle_angle_r	hip_flexion_l	hip_adduction_l	hip_rotation_l	knee_angle_l	ankle_angle_l	lumbar_extension	lumbar_bending	lumbar_rotation	arm_flex_r	arm_add_r	arm_rot_r	elbow_flex_r	pro_sup_r	arm_flex_l	arm_add_l	arm_rot_l	elbow_flex_l	pro_sup_l	subtalar_angle_r	mtp_angle_r	subtalar_angle_l	mtp_angle_l	wrist_flex_r	wrist_dev_r	wrist_flex_l	wrist_dev_l	LASI_tx	LASI_ty	LASI_tz	RASI_tx	RASI_ty	RASI_tz	LPSI_tx	LPSI_ty	LPSI_tz	RPSI_tx	RPSI_ty	RPSI_tz	RTH1_tx	RTH1_ty	RTH1_tz	RTH2_tx	RTH2_ty	RTH2_tz	RTH3_tx	RTH3_ty	RTH3_tz	LTH1_tx	LTH1_ty	LTH1_tz	LTH2_tx	LTH2_ty	LTH2_tz	LTH3_tx	LTH3_ty	LTH3_tz	RTB1_tx	RTB1_ty	RTB1_tz	RTB2_tx	RTB2_ty	RTB2_tz	RTB3_tx	RTB3_ty	RTB3_tz	LTB1_tx	LTB1_ty	LTB1_tz	LTB2_tx	LTB2_ty	LTB2_tz	LTB3_tx	LTB3_ty	LTB3_tz	RCAL_tx	RCAL_ty	RCAL_tz	RTOE_tx	RTOE_ty	RTOE_tz	RMT5_tx	RMT5_ty	RMT5_tz	LCAL_tx	LCAL_ty	LCAL_tz	LTOE_tx	LTOE_ty	LTOE_tz	LMT5_tx	LMT5_ty	LMT5_tz	LACR_tx	LACR_ty	LACR_tz	RACR_tx	RACR_ty	RACR_tz	CLAV_tx	CLAV_ty	CLAV_tz	C7_tx	C7_ty	C7_tz	RUA1_tx	RUA1_ty	RUA1_tz	RUA2_tx	RUA2_ty	RUA2_tz	RUA3_tx	RUA3_ty	RUA3_tz	RLEL_tx	RLEL_ty	RLEL_tz	RMEL_tx	RMEL_ty	RMEL_tz	LUA1_tx	LUA1_ty	LUA1_tz	LUA2_tx	LUA2_ty	LUA2_tz	LUA3_tx	LUA3_ty	LUA3_tz	LLEL_tx	LLEL_ty	LLEL_tz	LMEL_tx	LMEL_ty	LMEL_tz	RFAsuperior_tx	RFAsuperior_ty	RFAsuperior_tz	RFAradius_tx	RFAradius_ty	RFAradius_tz	RFAulna_tx	RFAulna_ty	RFAulna_tz	LFAsuperior_tx	LFAsuperior_ty	LFAsuperior_tz	LFAradius_tx	LFAradius_ty	LFAradius_tz	LFAulna_tx	LFAulna_ty	LFAulna_tz
      2.78000000	    -13.49236508	      1.31606208	     -4.59750359	      0.97663761	      1.01082883	     -0.36008937	     54.05596437	      0.97375681	      2.20375958	    -84.03494401	      7.18686041	     -2.05066629	      7.70287497	     -1.31245382	    -18.63598011	     -3.24591877	      2.93905777	      0.20011336	     -6.69543920	    -43.46503881	    -23.21168002	    -13.03732823	     99.32284923	    111.82119560	    -28.20251823	    -11.01604807	    -12.18364590	    129.25153444	    101.08053194	      0.00000000	      0.00000000	      0.00000000	      0.00000000	      0.00000000	      0.00000000	      0.00000000	      0.00000000	      1.00772762	      1.05496654	     -0.49066214	      0.98195541	      1.05321839	     -0.23301682	      0.84805931	      1.11417934	     -0.43245495	      0.83058559	      1.11276918	     -0.31947848	      0.92413820	      0.94816846	     -0.17900152	      0.96382946	      0.80392329	     -0.20563359	      1.09549634	      0.71143405	     -0.20371764	      0.92426113	      0.91035857	     -0.53298371	      0.80157248	      0.78641944	     -0.49280460	      0.81258698	      0.64358962	     -0.48001201	      1.11954605	      0.48616066	     -0.26510922	      1.02183123	      0.50748584	     -0.20765768	      0.97637653	      0.36074871	     -0.27623751	      0.76740162	      0.41680592	     -0.40470922	      0.63901280	      0.36864074	     -0.45385814	      0.62546110	      0.25141478	     -0.38845607	      0.79794357	      0.33310472	     -0.28455214	      0.98472613	      0.17688775	     -0.28496590	      0.92417624	      0.18831211	     -0.19540996	      0.44537805	      0.21120720	     -0.36626649	      0.62719096	      0.06478966	     -0.33316356	      0.56772264	      0.04880685	     -0.42833238	      0.99429063	      1.53645826	     -0.52067772	      0.96043812	      1.52658052	     -0.19910950	      1.03748679	      1.49181977	     -0.31930016	      0.92136309	      1.55644116	     -0.37169560	      0.82566475	      1.46723238	     -0.15910113	      0.84291107	      1.40707018	     -0.10955570	      0.74503413	      1.36483828	     -0.08086149	      0.68229461	      1.32547814	     -0.06496560	      0.68994741	      1.29170255	     -0.14729319	      0.90308766	      1.43837397	     -0.58626586	      0.93561222	      1.36205905	     -0.60602315	      0.86593257	      1.29782577	     -0.63851946	      0.84995120	      1.23293025	     -0.66001259	      0.82541812	      1.21053971	     -0.57230457	      0.75260284	      1.23797367	     -0.04003249	      0.88976467	      1.12781262	     -0.10397341	      0.84444329	      1.10096621	     -0.05932482	      0.92515072	      1.20057656	     -0.64020018	      1.06943416	      1.25243206	     -0.53057928	      1.08447726	      1.18663867	     -0.55574940
      2.79000000	    -13.75241754	      0.41935628	     -5.40836136	      0.97952858	      1.01738753	     -0.35928942	     54.18476987	      2.16525672	      1.25734810	    -78.01155274	      7.42066675	     -4.85015917	      6.59965817	     -2.42526912	    -16.20071121	     -9.46390525	      3.51980574	      1.58243507	     -6.61556290	    -45.21820884	    -22.99833121	    -14.28164599	    100.93782530	    109.70815346	    -28.73933125	    -11.00886739	    -11.96742811	    131.31884543	    101.38140498	      0.00000000	      0.00000000	      0.00000000	      0.00000000	      0.00000000	      0.00000000	      0.00000000	      0.00000000	      1.01265764	      1.06019057	     -0.49142705	      0.98295435	      1.06136036	     -0.23181003	      0.85263243	      1.11985573	     -0.43420737	      0.83317699	      1.12029043	     -0.32110361	      0.92602323	      0.95787396	     -0.17744545	      0.96597943	      0.81247747	     -0.20451965	      1.09685536	      0.72040148	     -0.20502619	      0.92505077	      0.91531710	     -0.53273819	      0.79613369	      0.79704911	     -0.49396520	      0.79988455	      0.65425662	     -0.48230559	      1.13441054	      0.49031946	     -0.26553846	      1.03433934	      0.50146730	     -0.20922169	      1.00584972	      0.35064256	     -0.27816630	      0.74638810	      0.42829104	     -0.40952626	      0.61714254	      0.38245361	     -0.45745641	      0.60397240	      0.26372005	     -0.39359505	      0.83088601	      0.30384783	     -0.28886830	      1.03341552	      0.16870045	     -0.28587155	      0.97050241	      0.17392905	     -0.19697956	      0.42684495	      0.23120981	     -0.37125144	      0.59189888	      0.06671692	     -0.33484954	      0.53210653	      0.05488914	     -0.43025205	      0.99688841	      1.54461093	     -0.51860970	      0.95878750	      1.53342721	     -0.19837780	      1.03703423	      1.49923290	     -0.31683979	      0.92130548	      1.56291082	     -0.37087166	      0.82261999	      1.47708571	     -0.16147785	      0.83785321	      1.41627049	     -0.11178896	      0.73823896	      1.37614539	     -0.08632034	      0.67625162	      1.33646948	     -0.07079390	      0.68602855	      1.30223267	     -0.15310888	      0.90653448	      1.44774127	     -0.58623653	      0.93933782	      1.37159717	     -0.60639237	      0.86933384	      1.30816335	     -0.64038983	      0.85441589	      1.24275508	     -0.66216781	      0.82860614	      1.21908731	     -0.57504763	      0.74462288	      1.24922903	     -0.04506209	      0.88515355	      1.14183764	     -0.10398191	      0.83816557	      1.11342988	     -0.06236866	      0.93004005	      1.21264903	     -0.64067248	      1.06990497	      1.26921395	     -0.52833066	      1.08790143	      1.20378311	     -0.55269242
      2.80000000	    -14.11106506	     -0.23460121	     -6.04306649	      0.98211506	      1.02329351	     -0.35854837	     54.07309472	      3.11974878	      0.38872225	    -71.55680314	      7.47662947	     -7.12359674	      5.77551637	     -3.26831753	    -14.32436098	    -15.37992540	      4.13017396	      2.64981899	     -6.59677400	    -46.71999391	    -22.75914756	    -15.20688593	    102.27784821	    107.38630108	    -29.30961017	    -11.16671162	    -11.83762346	    133.27903815	    101.66899145	      0.00000000	      0.00000000	      0.00000000	      0.00000000	      0.00000000	      0.00000000	      0.00000000	      0.00000000	      1.01700264	      1.06492060	     -0.49171953	      0.98425324	      1.06810534	     -0.23068929	      0.85662044	      1.12503808	     -0.43548750	      0.83579031	      1.12686716	     -0.32233716	      0.92702126	      0.96660800	     -0.17569394	      0.96727763	      0.81966157	     -0.20439713	      1.09619385	      0.72676790	     -0.20720323	      0.92592113	      0.92005561	     -0.53293684	      0.79182922	      0.80713768	     -0.49488284	      0.78895722	      0.66479856	     -0.48401169	      1.14771544	      0.49302603	     -0.26617746	      1.04674198	      0.49363553	     -0.21032391	      1.03483224	      0.34075112	     -0.28017706	      0.72784633	      0.44004623	     -0.41343966	      0.59799794	      0.39651147	     -0.46101928	      0.58498168	      0.27615254	     -0.39871912	      0.86570314	      0.27540008	     -0.29282779	      1.08154266	      0.16272907	     -0.28782834	      1.01742791	      0.16099207	     -0.19965179	      0.41205280	      0.25179290	     -0.37740388	      0.55815688	      0.07070114	     -0.33715823	      0.49864027	      0.06323584	     -0.43303127	      0.99939213	      1.55222099	     -0.51645069	      0.95763952	      1.53949337	     -0.19776499	      1.03665378	      1.50558247	     -0.31457053	      0.92134189	      1.56863323	     -0.37004640	      0.82023578	      1.48600736	     -0.16360506	      0.83361911	      1.42459391	     -0.11396038	      0.73326354	      1.38663692	     -0.09159831	      0.67287985	      1.34651838	     -0.07525183	      0.68449411	      1.31187850	     -0.15761844	      0.90969741	      1.45657917	     -0.58612407	      0.94253481	      1.38081822	     -0.60695963	      0.87227979	      1.31820383	     -0.64245189	      0.85853917	      1.25224686	     -0.66452434	      0.83164463	      1.22791470	     -0.57804670	      0.73821932	      1.25890018	     -0.05002980	      0.88129357	      1.15465600	     -0.10420461	      0.83272542	      1.12460703	     -0.06578767	      0.93437693	      1.22427012	     -0.64145235	      1.07019025	      1.28461725	     -0.52673374	      1.09092402	      1.21959138	     -0.55045069
      2.81000000	    -14.47737811	     -0.54168012	     -6.50555436	      0.98436202	      1.02846436	     -0.35792417	     53.66937236	      3.81057072	     -0.21812302	    -64.73327425	      7.23124604	     -8.87523204	      5.32880369	     -3.75571262	    -13.17221491	    -20.79230568	      4.70802127	      3.27956117	     -6.68023233	    -47.97420015	    -22.44687344	    -15.85153543	    103.45275273	    104.95699198	    -29.92558436	    -11.45662182	    -11.79934207	    135.11291682	    101.69219687	      0.00000000	      0.00000000	      0.00000000	      0.00000000	      0.00000000	      0.00000000	      0.00000000	      0.00000000	      1.02061761	      1.06912006	     -0.49150971	      0.98579903	      1.07318221	     -0.22988540	      0.85987819	      1.12968996	     -0.43626590	      0.83814941	      1.13223528	     -0.32326379	      0.92743844	      0.97363545	     -0.17420767	      0.96743035	      0.82490504	     -0.20598216	      1.09356839	      0.73036718	     -0.21003713	      0.92676012	      0.92458732	     -0.53359556	      0.78869477	      0.81675595	     -0.49511797	      0.78003952	      0.67488670	     -0.48481437	      1.15947887	      0.49431171	     -0.26720023	      1.05933692	      0.48418760	     -0.21083358	      1.06300625	      0.33121126	     -0.28232289	      0.71240424	      0.45140986	     -0.41603205	      0.58226860	      0.41011372	     -0.46442015	      0.56850691	      0.28844655	     -0.40350479	      0.90185468	      0.24841796	     -0.29598829	      1.12842678	      0.15880927	     -0.29137590	      1.06452962	      0.14970264	     -0.20347836	      0.40086271	      0.27276986	     -0.38475683	      0.52618712	      0.07731275	     -0.33997442	      0.46720303	      0.07394302	     -0.43607892	      1.00183522	      1.55912172	     -0.51433720	      0.95686552	      1.54470464	     -0.19727582	      1.03632391	      1.51063347	     -0.31274443	      0.92152457	      1.57351394	     -0.36932146	      0.81834643	      1.49381660	     -0.16551617	      0.83010509	      1.43190907	     -0.11594404	      0.72984457	      1.39578072	     -0.09626958	      0.67051298	      1.35545907	     -0.07935546	      0.68336794	      1.32054667	     -0.16185815	      0.91263246	      1.46456865	     -0.58600097	      0.94535575	      1.38940157	     -0.60758399	      0.87501392	      1.32753598	     -0.64457139	      0.86232196	      1.26105983	     -0.66704911	      0.83426593	      1.23656050	     -0.58107922	      0.73305822	      1.26732677	     -0.05483667	      0.87826533	      1.16611460	     -0.10466709	      0.82826950	      1.13436774	     -0.06957066	      0.93813039	      1.23507430	     -0.64244079	      1.07034307	      1.29850344	     -0.52567969	      1.09341813	      1.23372326	     -0.54867416
